<svg viewBox="0 0 342 168" x="0" y="0" fill="none" xmlns="http://www.w3.org/2000/svg"><g id="Vertical Bar" xmlns="http://www.w3.org/2000/svg">
<g id="1_4">
<g id="Frame_11">
<path id="Rectangle_5" opacity="0.5" d="M19,56.4c0,-2.24 0,-3.36 0.436,-4.216c0.383,-0.753 0.995,-1.365 1.748,-1.748c0.856,-0.436 1.976,-0.436 4.216,-0.436h7.2c2.24,0 3.36,0 4.216,0.436c0.753,0.383 1.365,0.995 1.748,1.748c0.436,0.856 0.436,1.976 0.436,4.216v83.6h-20z" fill="currentColor"/>
<rect id="Rectangle_6" x="19" y="68" width="20" height="72" fill="currentColor"/>
</g>
</g>
<g id="2_4">
<g id="Frame_12">
<path id="Rectangle_7" opacity="0.5" d="M76,36.4c0,-2.24 0,-3.36 0.436,-4.216c0.383,-0.753 0.995,-1.365 1.748,-1.748c0.856,-0.436 1.976,-0.436 4.216,-0.436h7.2c2.24,0 3.36,0 4.216,0.436c0.753,0.383 1.365,0.995 1.748,1.748c0.436,0.856 0.436,1.976 0.436,4.216v103.6h-20z" fill="currentColor"/>
<rect id="Rectangle_8" x="76" y="52" width="20" height="88" fill="currentColor"/>
</g>
</g>
<g id="3_4">
<g id="Frame_13">
<path id="Rectangle_9" opacity="0.5" d="M133,51.4c0,-2.24 0,-3.36 0.436,-4.216c0.383,-0.753 0.995,-1.365 1.748,-1.748c0.856,-0.436 1.976,-0.436 4.216,-0.436h7.2c2.24,0 3.36,0 4.216,0.436c0.753,0.383 1.365,0.995 1.748,1.748c0.436,0.856 0.436,1.976 0.436,4.216v88.6h-20z" fill="currentColor"/>
<rect id="Rectangle_10" x="133" y="64" width="20" height="76" fill="currentColor"/>
</g>
</g>
<g id="4_4">
<g id="Frame_14">
<path id="Rectangle_11" opacity="0.5" d="M190,26.4c0,-2.24 0,-3.36 0.436,-4.216c0.383,-0.753 0.995,-1.365 1.748,-1.748c0.856,-0.436 1.976,-0.436 4.216,-0.436h7.2c2.24,0 3.36,0 4.216,0.436c0.753,0.383 1.365,0.995 1.748,1.748c0.436,0.856 0.436,1.976 0.436,4.216v113.6h-20z" fill="currentColor"/>
<rect id="Rectangle_12" x="190" y="44" width="20" height="96" fill="currentColor"/>
</g>
</g>
<g id="5_2">
<g id="Frame_15">
<path id="Rectangle_13" opacity="0.5" d="M247,66.4c0,-2.24 0,-3.36 0.44,-4.216c0.38,-0.753 0.99,-1.365 1.74,-1.748c0.86,-0.436 1.98,-0.436 4.22,-0.436h7.2c2.24,0 3.36,0 4.22,0.436c0.75,0.383 1.36,0.995 1.74,1.748c0.44,0.856 0.44,1.976 0.44,4.216v73.6h-20z" fill="currentColor"/>
<rect id="Rectangle_14" x="247" y="76" width="20" height="64" fill="currentColor"/>
</g>
</g>
<g id="6_2">
<g id="Frame_16">
<path id="Rectangle_15" opacity="0.5" d="M304,36.4c0,-2.24 0,-3.36 0.44,-4.216c0.38,-0.753 0.99,-1.365 1.74,-1.748c0.86,-0.436 1.98,-0.436 4.22,-0.436h7.2c2.24,0 3.36,0 4.22,0.436c0.75,0.383 1.36,0.995 1.74,1.748c0.44,0.856 0.44,1.976 0.44,4.216v103.6h-20z" fill="currentColor"/>
<rect id="Rectangle_16" x="304" y="52" width="20" height="88" fill="currentColor"/>
</g>
</g>
</g></svg>