<svg viewBox="0 0 120 120" x="0" y="0" fill="none" xmlns="http://www.w3.org/2000/svg"><g id="01_2" xmlns="http://www.w3.org/2000/svg">
<path id="Subtract" fill-rule="evenodd" clip-rule="evenodd" d="M104.67,19.932c-3.75,-4.184 -10.16,-4.526 -14.32,-0.764c-4.17,3.762 -4.51,10.204 -0.76,14.388c6.3,7.045 10.13,16.339 10.13,26.555c0,15.109 -8.4,28.249 -20.76,34.968c3.67,1.701 6.6,4.957 7.76,9.182c0.97,3.563 0.51,7.182 -1.04,10.235c20.29,-9.622 34.32,-30.357 34.32,-54.385c0,-15.439 -5.81,-29.539 -15.33,-40.179z" fill="#1C1C1C"/>
<path id="Subtract_2" d="M36.99,27.493c6.4,-4.487 14.18,-7.116 22.6,-7.116c8.41,0 16.19,2.629 22.59,7.116c0.15,0.106 0.31,0.207 0.46,0.304c-0.31,-4.248 1.27,-8.591 4.67,-11.659c2.42,-2.186 5.38,-3.382 8.39,-3.615c-0.55,-0.647 -1.19,-1.234 -1.91,-1.743c-9.7,-6.794 -21.5,-10.78 -34.2,-10.78c-12.7,0 -24.51,3.986 -34.203,10.78c-4.594,3.219 -5.72,9.57 -2.516,14.185c3.205,4.615 9.529,5.747 14.119,2.528z" fill="#95A4FC"/>
<path id="Subtract_3" fill-rule="evenodd" clip-rule="evenodd" d="M17.012,18.346c-0.645,0.447 -1.249,0.976 -1.795,1.586c-4.57,5.106 -8.286,11.008 -10.915,17.482c-2.116,5.209 0.373,11.156 5.559,13.282c5.186,2.125 11.106,-0.375 13.222,-5.585c1.733,-4.266 4.188,-8.17 7.217,-11.555c0.05,-0.058 0.1,-0.116 0.15,-0.175c-4.22,-0.223 -8.299,-2.33 -10.906,-6.084c-1.89,-2.722 -2.704,-5.876 -2.532,-8.951z" fill="#B1E3FF"/>
<path id="Subtract_4" fill-rule="evenodd" clip-rule="evenodd" d="M1.813,47.235c1.453,3.169 4.06,5.812 7.53,7.234c3.816,1.564 7.916,1.339 11.377,-0.285c-0.287,1.928 -0.436,3.907 -0.436,5.927c0,12.853 6.076,24.281 15.496,31.544c0.5,0.239 0.99,0.523 1.46,0.852c6.41,4.487 14.18,7.116 22.6,7.116c3.65,0 7.17,-0.493 10.5,-1.412c5.4,-1.489 10.98,1.702 12.46,7.128c1.49,5.426 -1.69,11.032 -7.09,12.522c-5.07,1.396 -10.39,2.139 -15.87,2.139c-3.7,0 -7.33,-0.339 -10.85,-0.987c0.07,0.089 0.15,0.177 0.23,0.264c-27.985,-5.036 -49.22,-29.61 -49.22,-59.166c0,-3.331 0.271,-6.606 0.793,-9.802c0.18,-1.103 0.531,-2.135 1.02,-3.074z" fill="#BAEDBD"/>
</g></svg>